<svg width="39" height="19" viewBox="0 0 39 19" fill="none" xmlns="http://www.w3.org/2000/svg">
<path fill-rule="evenodd" clip-rule="evenodd" d="M35.798 3.1046L26.2354 11.3805L25.581 11.9469L24.9266 11.3805L15.364 3.10469V16.0244H35.798V3.1046ZM13.364 0.991024H12.9218L13.364 1.3738V2.75769V16.0244V18.0244H15.364H35.798H37.798V16.0244V2.75769V1.37372L38.2402 0.991024H37.798V0.75769H35.798H15.364H13.364V0.991024ZM32.873 2.99102H18.2889L25.581 9.30186L32.873 2.99102Z" fill="white"/>
<path d="M11.2697 4.04663V5.69108L0.797974 4.86885L11.2697 4.04663Z" fill="white"/>
<path d="M11.2697 8.15771V9.80216L0.797974 8.97994L11.2697 8.15771Z" fill="white"/>
<path d="M11.2697 12.2688V13.9132L0.797974 13.091L11.2697 12.2688Z" fill="white"/>
</svg>
