<svg xmlns="http://www.w3.org/2000/svg" viewBox="0 0 279.42 279.42"><defs><style>.cls-1{fill:#ff7f5b;}.cls-2{font-size:69.48px;font-family:Breathe-Press, Breathe;}.cls-3{fill:#fff;}.cls-4{fill:#fffcdf;}</style></defs><title>symbol3</title><g id="Layer_2" data-name="Layer 2"><g id="Layer_1-2" data-name="Layer 1"><rect class="cls-1" width="279.42" height="279.42" rx="139.71"/><text class="cls-2" transform="translate(22.04 165.23)">UP!<tspan class="cls-3" x="63.65" y="0"> </tspan><tspan class="cls-4" x="81.02" y="0">burger</tspan></text><path d="M204.41,96.15H75a8.22,8.22,0,0,1-8-10,47,47,0,0,1,45.94-37h53.5a47,47,0,0,1,45.94,37A8.21,8.21,0,0,1,204.41,96.15Z"/><circle class="cls-4" cx="95.46" cy="65.4" r="1.92"/><circle class="cls-4" cx="116.71" cy="59.06" r="1.92"/><circle class="cls-4" cx="152.52" cy="65.4" r="1.92"/><circle class="cls-4" cx="144.31" cy="79.4" r="1.92"/><circle class="cls-4" cx="126.43" cy="90.96" r="1.92"/><circle class="cls-4" cx="109.7" cy="88.48" r="1.92"/><circle class="cls-4" cx="142.71" cy="57.15" r="1.92"/><circle class="cls-4" cx="137.79" cy="67.31" r="1.92"/><circle class="cls-4" cx="171.36" cy="86.56" r="1.92"/><circle class="cls-4" cx="161.54" cy="78.31" r="1.92"/><circle class="cls-4" cx="156.63" cy="88.48" r="1.92"/><circle class="cls-4" cx="182.71" cy="66.65" r="1.92"/><circle class="cls-4" cx="172.9" cy="58.4" r="1.92"/><circle class="cls-4" cx="167.98" cy="68.56" r="1.92"/><circle class="cls-4" cx="199.36" cy="82.81" r="1.92"/><circle class="cls-4" cx="189.55" cy="74.56" r="1.92"/><circle class="cls-4" cx="184.63" cy="84.73" r="1.92"/><circle class="cls-4" cx="129.53" cy="74.48" r="1.92"/><circle class="cls-4" cx="119.72" cy="66.23" r="1.92"/><circle class="cls-4" cx="114.8" cy="76.4" r="1.92"/><circle class="cls-4" cx="91.63" cy="83.65" r="1.92"/><circle class="cls-4" cx="82" cy="86.56" r="1.92"/><circle class="cls-4" cx="84.56" cy="76.4" r="1.92"/><circle class="cls-4" cx="122.88" cy="79.4" r="1.92"/><circle class="cls-4" cx="104.13" cy="76.4" r="1.92"/><path d="M204.41,183.28H75a8.21,8.21,0,0,0-8,10,47,47,0,0,0,45.94,37h53.5a47,47,0,0,0,45.94-37A8.21,8.21,0,0,0,204.41,183.28Z"/><circle class="cls-4" cx="95.46" cy="214.03" r="1.92"/><circle class="cls-4" cx="116.71" cy="220.36" r="1.92"/><circle class="cls-4" cx="152.52" cy="214.03" r="1.92"/><circle class="cls-4" cx="144.31" cy="200.03" r="1.92"/><circle class="cls-4" cx="126.43" cy="188.46" r="1.92"/><circle class="cls-4" cx="109.7" cy="190.94" r="1.92"/><circle class="cls-4" cx="142.71" cy="222.28" r="1.92"/><circle class="cls-4" cx="137.79" cy="212.11" r="1.92"/><circle class="cls-4" cx="171.36" cy="192.86" r="1.92"/><circle class="cls-4" cx="161.54" cy="201.11" r="1.92"/><circle class="cls-4" cx="156.63" cy="190.94" r="1.92"/><circle class="cls-4" cx="182.71" cy="212.78" r="1.92"/><circle class="cls-4" cx="172.9" cy="221.03" r="1.92"/><circle class="cls-4" cx="167.98" cy="210.86" r="1.92"/><circle class="cls-4" cx="199.36" cy="196.61" r="1.92"/><circle class="cls-4" cx="189.55" cy="204.86" r="1.92"/><circle class="cls-4" cx="184.63" cy="194.69" r="1.92"/><circle class="cls-4" cx="129.53" cy="204.94" r="1.92"/><circle class="cls-4" cx="119.72" cy="213.19" r="1.92"/><circle class="cls-4" cx="114.8" cy="203.03" r="1.92"/><circle class="cls-4" cx="91.63" cy="195.78" r="1.92"/><circle class="cls-4" cx="82" cy="192.86" r="1.92"/><circle class="cls-4" cx="84.56" cy="203.03" r="1.92"/><circle class="cls-4" cx="122.88" cy="200.03" r="1.92"/><circle class="cls-4" cx="104.13" cy="203.03" r="1.92"/></g></g></svg>